<?xml version="1.0" encoding="utf-8"?>
<!DOCTYPE svg PUBLIC "-//W3C//DTD SVG 1.1//EN" "http://www.w3.org/Graphics/SVG/1.1/DTD/svg11.dtd">
<svg version="1.1" id="Layer_1" xmlns="http://www.w3.org/2000/svg" xmlns:xlink="http://www.w3.org/1999/xlink" x="0px" y="0px"
	 viewBox="992 -33.2831 576 1666.5663" enable-background="new 992 -33.2831 576 1666.5663" xml:space="preserve">
<g>
	<path d="M1474.5869,780.2982c-5.1652-9.2556-4.7104-11.0025,6.4572-10.5153c8.5894,0.3746,10.158-2.7054,8.426-10.2522
		c-6.8665-29.923-13.6056-59.8766-20.1611-89.8696c-3.389-15.5052-9.7576-31.0954,0.7583-46.5571
		c1.9829-2.9153,1.0673-6.982-0.2295-10.2604c-1.5186-3.8401-0.9575-7.3537-0.2931-11.2733
		c3.267-19.2849,12.6122-36.6459,17.2299-55.569c1.9296-7.9069,6.0773-16.3123,13.6124-21.7853
		c16.6184-12.07,20.4601-27.123,9.8885-44.2455c-13.8671-22.4614-26.2676-45.7319-37.4974-69.4933
		c-12.4729-26.3908-23.0804-53.6787-30.1128-82.2039c-7.4711-30.3077-7.9641-61.9907-18.6051-91.6913
		c-4.847-13.5293-8.6514-27.4372-12.7646-41.2225c-2.308-7.7353-4.4174-15.5366-6.3666-23.3704
		c-1.9344-7.7741-6.483-15.5554-3.9337-23.5656c2.6768-8.4103-6.7523-11.3658-6.4136-19.1104
		c0.4501-10.2731-6.1553-19.9559-4.644-30.8076c2.3037-16.5435-0.4224-32.9784-2.2418-49.3156
		c-0.6466-5.8052,5.9956-17.8618-9.2645-16.1139c-0.4854,0.0552-1.5293-2.2602-1.8409-3.5818
		c-2.6741-11.3361-8.3507-20.7045-19.8385-24.149c-4.5421-1.362-11.384-8.0569-12.7529-4.1205
		c-2.2708,6.529-9.4869,8.5447-10.526,14.1195c-3.3656,18.0609-13.3306,33.8178-16.7292,51.9055
		c-5.6283,29.9542-7.4136,60.5656-16.5818,89.9432c-6.5817,21.0912-10.3663,42.9462-14.9681,64.5821
		c-6.8673,32.2871-2.7567,64.4126-1.3853,96.612c0.3107,7.2974-1.8575,14.6916,0.9253,21.9307
		c5.8341,15.1764,5.9655,30.9233,4.0244,46.767c-0.3916,3.1982-1.4449,6.3115,0.9707,8.9857
		c4.8307,5.3466,3.7943,11.6877,3.236,17.9278c-0.4425,4.9453-0.0269,9.5718,1.6053,14.4303
		c2.5964,7.7306,4.5996,15.9807,1.6858,24.0328c-9.4167,26.0208-17.1031,52.9488-29.3607,77.5848
		c-13.2681,26.6681-15.9333,54.6534-14.6564,82.6161c1.1063,24.2332,4.8878,48.7521,9.2433,72.7645
		c5.2094,28.7193,9.9417,57.254,8.8186,86.5154c-0.1238,3.2307,0.3641,6.2993,2.0463,9.1135
		c5.0189,8.3944,3.4341,18.5532,7.0546,27.1794c3.3499,7.9808-1.047,14.009-5.9163,16.9185
		c-7.7023,4.6016-14.5262,10.7173-22.859,14.2084c-13.8643,5.8085-28.2721,10.5034-41.6509,17.2532
		c-44.4199,22.4106-89.8998,42.9671-131.0536,71.3445c-15.5295,10.708-29.7897,23.1218-33.11,43.0186
		c-4.8352,28.9756,8.5286,50.3284,30.9243,66.7147c24.1469,17.6676,53.1222,24.8019,80.4718,35.4745
		c24.1083,9.4077,49.1118,17.1047,71.458,30.2339c22.6572,13.3127,43.9773,28.8923,65.9803,43.3302
		c9.9578,6.5338,19.7705,17.1405,30.3236,18.0469c17.5677,1.5085,19.0645,13.457,22.9185,24.6062
		c3.3208,9.608,6.3259,19.2557,11.2393,28.2107c4.1141,7.4984,6.5128,15.6368,6.8041,24.1152
		c0.2333,6.786,2.749,12.2925,7.0895,17.073c8.4792,9.3396,11.4658,21.2631,12.406,32.8419
		c0.8677,10.6875,3.4401,14.8885,13.761,10.8881c1.8705,3.6854-1.0441,9.4246,3.1024,9.9313
		c6.7207,0.8212,5.1941,5.2814,5.5785,8.9095c2.5112,23.728,4.9805,47.462,7.2007,71.2186
		c0.8456,9.047,4.4559,18.2634,1.7637,27.1432c-4.7854,15.7828-4.2036,31.931-4.6802,47.9629
		c-0.103,3.4689-0.3119,7.0804-0.6766,10.738c-0.1068,1.0712,4.8701,6.7872,5.2931,8.9961
		c0.7389,3.8599-0.1516,7.9055-1.121,11.6437c-2.0059,7.7357-5.2705,15.1335-9.5383,21.8855
		c-5.5054,8.7101-12.6934,16.3667-21.0803,22.3575c-5.71,4.0782-12.9689,7.0801-17.9546,11.8311
		c-5.4579,5.2009-11.7557,9.2645-18.9526,11.62c-10.646,3.4844-22.2511,3.1725-32.8842,6.6963
		c-3.2271,1.0695-8.2894,2.9539-8.7925,6.7784c-0.4723,3.5906,2.0356,9.0819,4.2269,11.7721
		c7.0645,8.673,17.7886,3.441,27.1439,3.7383c8.6279,0.274,17.0476,1.6628,25.5973,2.7316c9.563,1.1924,19.2502-0.4691,28.5514-2.64
		c6.339-1.4797,12.6558-3.2073,19.1401-3.7765c10.972-0.9631,20.0981,3.738,30.4326,6.4323
		c5.6014,1.4603,12.0431,2.0813,17.818,0.8871c6.1334-1.2684,9.1605-4.5325,10.4723-9.5756
		c0.3479-1.3378,0.5752-2.8007,0.7075-4.3849c0.392-4.6891,1.3879-10.3634,0.3422-14.9611
		c-1.1635-5.1143-2.558-9.8098-3.1459-15.0709c-0.0291-0.257-0.057-0.514-0.0845-0.7711
		c-0.5916-5.543-0.8862-11.1177-0.8846-16.6921c0.0011-5.722,0.3143-11.444,0.9382-17.1318
		c0.7891-7.1947,2.4222-14.2794,2.9608-21.5043c0.4414-5.9199,2.6241-9.5973,8.6815-11.2119
		c18.4932-4.9296,19.8165-7.6766,19.162-26.762c-0.108-3.1527-0.545-6.2946-0.6362-9.4471
		c-0.9597-33.2656-5.6539-66.3669,0.359-99.8276c6.7682-37.66,8.1135-75.582-7.6957-111.8503
		c-7.0555-16.1866-7.35-33.3206-8.3953-50.2887c-2.5155-40.8439,7.283-80.9707,7.5306-121.7832
		c0.2373-39.093,11.559-76.7307,20.173-114.5709c4.5333-19.9134,5.6005-40.0865,3.9514-59.8812
		C1509.4078,853.02,1494.3447,815.7036,1474.5869,780.2982z M1347.0391,114.2768c2.957,9.4154,9.4218,16.162,10.954,27.3386
		c3.1132,22.7102,3.6573,45.5258,6.2656,68.1912c0.5603,4.8678,0.7101,9.7818,1.2219,14.6565
		c1.0194,9.7059,3.1405,19.2792-10.585,22.8238c-6.316,1.6311-5.8723,10.242-10.5487,15.0951
		C1350.5944,213.0302,1336.2283,163.6973,1347.0391,114.2768z M1357.578,1095.547c-5.8885-3.0183-11.6748-6.5735-16.723-10.8292
		c-15.8138-13.3323-33.3561-24.2329-50.2933-35.928c-18.2378-12.5933-32.803-29.2625-50.191-42.7753
		c-9.2522-7.1903-8.4155-9.1539,3.1913-11.8543c30.3087-7.0515,58.4425-20.623,88.2852-29.1244
		c8.4653-2.4113,12.0151-0.8447,14.4479,7.3436c8.8907,29.9254,14.8846,60.3273,16.8992,91.5176
		c0.6084,9.4199,2.0065,18.7889,3.3445,30.9166C1365.8164,1098.7021,1360.9825,1097.2922,1357.578,1095.547z"/>
</g>
</svg>
