<?xml version="1.0" encoding="utf-8"?>

<!DOCTYPE svg PUBLIC "-//W3C//DTD SVG 1.1//EN" "http://www.w3.org/Graphics/SVG/1.1/DTD/svg11.dtd">
<svg version="1.1" id="Layer_1" xmlns="http://www.w3.org/2000/svg" xmlns:xlink="http://www.w3.org/1999/xlink" x="0px" y="0px"
	 viewBox="0 0 1912.185 1639.761" style="enable-background:new 0 0 1912.185 1639.761;" xml:space="preserve">
<g>
	<path d="M1632.378,512.599c0,0,139.354,33.371,139.603,33.448c9.788,3.054,19.657,0.777,29.411,1.902
		c12.366,1.425,8.847,6.125,12.925,8.825c54.076,35.799,47.576,26.601,66.358,27.549c17.198,0.867,3.395,21.695-5.308,26.28
		c-4.421,2.329-7.267,5.438-7.05,11.066c0.158,4.099-2.677,5.727-6.663,4.817c-9.073-2.071-9.073-2.071-13.307,6.008
		c-1.49,2.842-4.692,3.505-6.915,0.852c-7.133-8.515-11.417-0.143-21.524,1.448c-4.777,0.752-11.883,8.487-20.63,2.59
		c-3.307-2.229-6.126,5.584-10.967,5.883c-10.006,0.619-19.893,2.655-30.094,0.795c-13.27-2.42-26.785-1.727-40.125-0.349
		c-51.449,5.315-48.855,8.128-76.694,17.245c-50.725,16.613-56.611-20.373-70.843-39.203c-17.889-23.667-53.491-21.129-67.75-22.443
		c-6.726-0.62-5.191,6.562-16.79,13.626c-4.545,2.768-14.394-6.023-24.085-9.605c-19.062-7.046-18.635,2.871-45.323-5.49
		c-10.915-3.419-9.08,1.456-37.929-4.43c-5.1-1.041-10.351-1.284-15.364-1.027c-29.589,1.516-35.979-6.684-46.755-6.987
		c-10.784-0.304-21.398-1.981-32.059-3.354c-4.308-0.555-8.678,0.085-13.044-0.079c-15.054-0.564-14.766-7.687-29.531-6.7
		c-53.746,3.593-62.107-3.822-86.87-10.151c-3.378-0.863-6.654,1.254-9.896,2.171c-10.102,2.858-55.483,18.696-86.916,13.78
		c-13.996-2.189-27.96-0.592-41.83-1.812c-14.896-1.31-33.634,9.434-40.826,7.056c-5.625-1.86-10.245,1.19-15.045,3.008
		c-23.605,8.942-26.871,3.884-54.319,15.628c-17.648,7.551-22.663,5.812-32.24,12.77c-5.126,3.724-14.515,2.245-20.604,12.907
		c-2.484,4.349-4.805,8.213-10.019,10.206c-8.025,3.068-13.637,10.113-21.158,14.202c-1.918,1.043-1.224,3.42-1.21,5.214
		c0.333,44.7-27.729,74.577-30.185,82.845c-7.872,26.495-32.737,30.896-50.22,54.395c-13.638,18.33-19.779,13.146-30.144,13.264
		c-7.508,0.086-9.177-3.47-14.18-1.461c-10.557,4.241-11.69-3.171-15.406,0.735c-7.108,7.47-13.495-0.809-15.041-1.798
		c-9.808-6.273-4.446,5.973-10.043,9.103c-2.269,1.269-2.35,2.706-0.586,4.402c1.855,1.784,2.059,4.08,2.284,6.451
		c0.267,2.807,0.025,4.575-3.575,5.148c-3.545,0.564-6.477,3.606-10.596,2.839c-1.646-0.307-1.653,1.569-1.787,2.756
		c-1.272,11.313,4.678,15.225,6.065,18.519c15.55,36.94,44.983,45.418,39.491,64.353c-1.675,5.775,23.112,26.098,22.939,27.986
		c-0.507,5.529,18.532,21.817,27.615,38.737c4.105,7.646,8.95,13.944,15.075,19.729c3.643,3.44,4.739,8.593,7.875,12.599
		c2.229,2.848,24.84,24.383,37.613,57.376c7.983,20.62,23.655,41.984,28.494,59.376c4.53,16.282,5.819,35.194,3.745,41.536
		c-5.529,16.905,2.262,33.064-0.441,42.026c-2.528,8.381,6.91,8.585,3.261,17.583c-8.276,20.403-6.332,34.419-6.46,53.757
		c-0.098,14.713,13.521,35.007,34.857,30.761c5.794-1.153,11.719-0.305,17.494-0.009c6.592,0.337,12.544-1.895,18.801-2.768
		c3.202-0.447,19.007,1.503,21.426,0.493c6.909-2.884,14.294-0.165,37.091,16.1c23.053,16.448,40.365,28.319,35.65,39.906
		c-1.191,2.927-0.119,5.462,4.26,6.564c11.256,2.833,5.037,16.552,10.058,21.895c0.589,0.626,0.521,1.487,0.065,2.185
		c-5.68,8.685-3.941,18.193-2.997,27.58c1.094,10.876-4.436,10.247,2.828,12.309c3.362,0.955,2.103-1.617,2.205-3.002
		c0.106-1.445,0.859-2.872,2.069-2.658c5.829,1.032,6.261-6.298,10.748-4.973c10.475,3.094,21.311,5.653,27.734,15.789
		c1.119,1.766,2.988,1.478,4.365,2.412c3.62,2.457,8.408,17.159,7.627,21.547c-0.476,2.672-4.787,4.281-2.3,7.413
		c4.717,5.939,16.173,11.134,19.895,14.553c5.394,4.957,5.392,9.476-3.52,37.51c-0.787,2.477-2.5,4.352-4.748,5.614
		c-16.926,9.497-16.503,10.322-24.17,6.373c-9.658-4.974-18.095-11.642-25.581-19.496c-3.782-3.969-9.032-5.547-10.345-0.577
		c-1.061,4.014-3.422,7.409-6.164,10.4c-4.933,5.381-7.86,11.994-11.621,18.089c-4.275,6.928-4.552,14.481-2.881,22.199
		c2.395,11.064-7.417,4.334-19.935,13.687c-0.714,0.534-1.983,1.189-2.565,0.906c-6.564-3.198-10.445,4.142-16.326,3.99
		c-4.814-0.125-97.297,9.952-108.119,12.282c-88.809,19.119-178.376,2.763-227.773,9.252c-8.036,1.056-15.696-1.289-23.485,0.239
		c-6.281,1.232-14.604-28.749-22.42-41.034c-0.806-1.267-1.634-2.967-0.105-4.264c2.938-2.491,3.663-28.756,9.777-50.369
		c1.173-4.148,36.544-162.78,36.261-179.134l0.01,0.037c1.576-2.427,2.195-7.879,2.195-7.879c0.706-2.876,1.413-5.753,2.119-8.629
		l-0.126,0.117c1.54-5.814,0.832-12.074,3.516-17.674c0.011-0.012-0.089,0.1-0.089,0.1c1.342-2.18,2.16-4.348,1.011-6.985
		c-1.143-2.623,3.65-21.521,4.974-25.232l-0.095-0.139c0.378,0.759,0.75,1.013,1.108-0.013l-0.075,0.141
		c1.142-0.742,1.206-2.145,1.904-3.127c3.7-5.209-2.786-3.245-19.574-11.673c-2.306-1.158-14.602-10.497-18.124-9.884
		c-0.918,0.16-2.255,0.288-2.563-0.601c-1.387-4.009-5.364-4.086-8.3-5.31c-24.079-10.039-39.11-33.808-52.617-44.091
		c-2.771-2.109-5.843-4.314-5.95-8.49c-0.019-0.765-1.303-1.677-1.585-1.232c-2.628,4.15-4.47,0.092-5.753-0.893
		c-13.523-10.385-29.878-30.073-27.359-49.232c8.026-61.037,11.694-31.896,10.243-58.025c-1.067-19.225,10.672-27.497,1.214-32.947
		c-8.953-5.159-15.61,15.097-23.35,0.17c-37.093-71.536-52.225-133.966-50.177-218.304c1.268-52.207-1.024-50.991-5.054-51.903
		c-18.876-4.273-28.093-18.344-34.61-34.675c-5.151-12.908,6.643-15.972,17.484-38.012c0.602-1.225,1.741-2.473,0.636-3.844
		c-1.025-1.271-2.248-0.185-3.41,0.071c-4.02,0.887-8.03-0.353-10.296-3.174c-8.073-10.048-45.196-26.237-51.9-30.432
		c-37.15-23.244-90.751-45.469-99.113-50.009c-29.992-16.285-70.793-7.828-112.163-38.592
		c-6.585-4.897-96.751-20.025-105.254-92.028c-3.011-25.501,4.917-47.119,19.571-67.151
		c36.838-50.357,40.433-44.794,221.395-160.757c13.27-8.503,26.821-16.795,38.503-27.538c8.206-7.546,15.993-15.72,25.535-21.462
		c5.652-3.401,80.71-87.242,80.71-87.242c0.06-0.06,0.126-0.112,0.192-0.164c-0.114,0.024-0.227,0.048-0.341,0.072
		c4.242-6.898,9.563-12.883,15.518-18.332l-0.1,0.104c3.477-3.998,5.961-8.911,10.756-11.688c-0.072,0.033-0.135,0.069-0.197,0.106
		c0.097,0.027,0.193,0.054,0.29,0.08c1.446-1.327,1.14-4.457,4.211-4.109c0.038-0.056,0.086-0.106,0.134-0.156
		c-0.102,0.026-0.203,0.052-0.305,0.078c2.445-5.464,6.812-9.15,11.555-12.488l-0.121,0.063c-0.013-0.392-0.026-0.784-0.04-1.175
		l0.136,0.038c9.232-5.86,6.993-12.166,16.312-19.474c7.889-6.186,15.389-12.825,22.455-19.908c3.421-3.43,7.633-5.749,11.1-9.104
		c2.55-2.468,3.017-6.29,6.722-8.114c10.036-4.942,11.922,3.855,17.873-0.749c9.558-7.393,19.019,1.44,25.249,0.008
		c2.806-0.645,4.727,7.78,2.36,9.838c-5.403,4.698-5.232,12.567-10.173,17.512c-4.352,4.356,6.507,7.837-0.323,19.26
		c-3.357,5.615,1.707,3.57-2.132,16.236c-11.789,38.896-34.731,80.391-36.744,118.928c-0.793,15.193,0.585,62.451-24.85,75.353
		c-13.253,6.722-27.819,3.798-41.515-2.132c-12.323-5.336-29.808-0.693-37.878,10.213c-2.704,3.654-2.796,8.664-5.764,12.559
		c-9.987,13.107-19.288,26.752-32.744,36.782c-1.001,0.746-40.176,47.016-52.53,69.452c-2.902,5.271-7.866,9.099-10.171,14.905
		c-4.567,11.507-9.2,12.113-5.556,15.402c1.24,1.119,2.501,2.206,4.021,0.707c8.968-8.847,19.334-9.725,31.09-6.67
		c23.731,6.167,23.976-1.348,93.676,0.249c68.786,1.576,132.384,18.018,142.33,20.941c77.695,22.837,58.49,28.037,77.634,21.735
		c87.6-28.834,56.643-11.923,88.819-31.537c71.191-43.396,195.516-85.1,269.636-103.358c0.001,0,85.361-18.724,85.362-18.724
		c27.853-6.035,65.368,23.282,87.308,36.261c65.324,38.645,246.022,106.98,256.037,111.152
		c26.163,10.899,76.641,20.126,100.978,23.459c4.058,0.556,7.069,1.981,8.529,6.617c1.946,6.178,9.708,2.8,68.406,10.864
		c8.546,1.174,17.327,1.166,25.677,3.759L1632.378,512.599z"/>
	<path d="M621.487,1309.371c0.344-0.359,0.422-1.314,1.059-0.912c0.288,0.182,0.04,1.215,0.026,1.872
		c-0.009,0.01,0.091-0.102,0.08-0.09c-0.392-0.293-0.774-0.599-1.156-0.904L621.487,1309.371z"/>
	<path d="M1632.413,512.583c0.246,0.062,0.491,0.125,0.737,0.187c-0.254-0.057-0.508-0.115-0.767-0.171
		C1632.378,512.599,1632.413,512.583,1632.413,512.583z"/>
	<path d="M628.548,1278.124c0.3-1.057,0.618-0.563,0.937-0.01c0.001,0,0.075-0.141,0.075-0.141
		c-0.369,0.004-0.738,0.008-1.107,0.013L628.548,1278.124z"/>
	<path d="M621.497,1309.338c0.094,0.273,0.188,0.546,0.282,0.819C621.733,1310.05,621.463,1309.449,621.497,1309.338z"/>
	<path d="M616.701,1336.302c0.083-0.239,0.167-0.478,0.25-0.718c0.065,0.279,0.129,0.559,0.192,0.841c0,0,0.271-0.105-0.235-0.188
		l-0.344,0.09C616.564,1336.328,616.701,1336.302,616.701,1336.302z"/>
	<path d="M614.937,1344.27c0.081-0.259,0.162-0.519,0.242-0.778C615.165,1343.542,614.951,1344.321,614.937,1344.27z"/>
	<path d="M451.244,81.232c-0.361-0.945-0.242-0.721-0.024-1.074c0-0.001-0.137-0.039-0.137-0.039
		c0.013,0.392,0.027,0.784,0.04,1.175L451.244,81.232z"/>
	<path d="M424.901,109.304c-0.144-0.003-0.289-0.005-0.433-0.008c0.092-0.105,0.185-0.21,0.277-0.315
		C424.815,109.52,424.829,109.379,424.901,109.304z"/>
	<path d="M619.262,1327.799c0,0-0.125,0.115-0.125,0.116C619.136,1327.916,619.262,1327.799,619.262,1327.799z"/>
	<path d="M616.564,1336.328l-0.215-0.025C616.782,1336.296,616.737,1336.295,616.564,1336.328z"/>
</g>
</svg>
